<svg xmlns="http://www.w3.org/2000/svg" viewBox="0 0 199 135.38"><defs><style>.cls-1,.cls-3{fill:#fff;}.cls-1{stroke:#000;stroke-miterlimit:10;stroke-width:3px;}.cls-2{fill:#65cbf0;}</style></defs><title>logo</title><g id="图层_2" data-name="图层 2"><g id="图层_1-2" data-name="图层 1"><rect class="cls-1" x="1.5" y="21.88" width="196" height="112" rx="26.01"/><circle class="cls-2" cx="99.5" cy="77.88" r="33.25"/><path d="M99.5,46.62A31.25,31.25,0,1,1,68.25,77.88,31.26,31.26,0,0,1,99.5,46.62m0-4a35.25,35.25,0,1,0,35.25,35.26A35.29,35.29,0,0,0,99.5,42.62Z"/><path class="cls-3" d="M127.66,78c0,.26,0,.52,0,.79a3.55,3.55,0,0,1-6.93-.22c0-.22,0-.44,0-.65s0-.44,0-.65A21.33,21.33,0,0,0,99.79,56.63H99a3.55,3.55,0,0,1-.73-6.89c.36,0,.72,0,1.08,0l1.2,0a28.32,28.32,0,0,1,27.1,27.32C127.65,77.39,127.66,77.71,127.66,78Z"/><rect class="cls-1" x="30.37" y="1.5" width="28" height="13" rx="6.5"/></g></g></svg>